<?xml version="1.0" standalone="no"?>
<!DOCTYPE svg PUBLIC "-//W3C//DTD SVG 20010904//EN"
 "http://www.w3.org/TR/2001/REC-SVG-20010904/DTD/svg10.dtd">
<svg version="1.0" xmlns="http://www.w3.org/2000/svg"
 width="260.000000pt" height="260.000000pt" viewBox="0 0 260.000000 260.000000"
 preserveAspectRatio="xMidYMid meet">
<metadata>
Created by potrace 1.14, written by Peter Selinger 2001-2017
</metadata>
<g transform="translate(0.000000,260.000000) scale(0.100000,-0.100000)"
fill="#000000" stroke="none">
<path d="M1178 2575 c-2 -2 -26 -6 -53 -9 -122 -15 -256 -55 -380 -115 -309
-151 -546 -418 -653 -737 -49 -143 -64 -235 -67 -395 -2 -119 2 -166 21 -261
81 -401 327 -724 689 -906 66 -33 220 -87 275 -97 19 -3 55 -11 80 -17 143
-33 493 -5 625 51 11 5 51 21 88 36 197 80 407 247 533 426 160 227 238 465
238 729 1 155 -6 220 -34 328 -123 485 -501 845 -995 947 -69 15 -357 30 -367
20z"/>
</g>
</svg>
